<svg width="200" height="200" viewBox="0 0 200 200" xmlns="http://www.w3.org/2000/svg">
  <!-- Clock Circle -->
  <circle cx="100" cy="100" r="95" stroke="black" stroke-width="4" fill="white"/>
  
  <!-- Clock Center -->
  <circle cx="100" cy="100" r="5" fill="black"/>

  <!-- Hour Hand -->
  <line x1="100" y1="100" x2="100" y2="60" stroke="black" stroke-width="6" />

  <!-- Minute Hand -->
  <line x1="100" y1="100" x2="140" y2="100" stroke="black" stroke-width="4" />

  <!-- Tick marks -->
  <!-- 12 ticks -->
  <g stroke="black" stroke-width="2">
    <line x1="100" y1="10" x2="100" y2="20"/>
    <line x1="100" y1="190" x2="100" y2="180"/>
    <line x1="10" y1="100" x2="20" y2="100"/>
    <line x1="190" y1="100" x2="180" y2="100"/>
    
    <line x1="146" y1="28" x2="140" y2="40"/>
    <line x1="54" y1="28" x2="60" y2="40"/>
    <line x1="146" y1="172" x2="140" y2="160"/>
    <line x1="54" y1="172" x2="60" y2="160"/>
    
    <line x1="28" y1="54" x2="40" y2="60"/>
    <line x1="172" y1="54" x2="160" y2="60"/>
    <line x1="28" y1="146" x2="40" y2="140"/>
    <line x1="172" y1="146" x2="160" y2="140"/>
  </g>
</svg>